# xmcd
#
# Track frame offsets: 
#        150
#        17364
#        44281
#        49358
#        83052
#        97808
#        122121
#        142010
#        173020
#        186600
#
# Disc length: 2738 seconds
#
# Revision: 1
# Processed by: cddbd v1.5.2PL0 Copyright (c) Steve Scherf et al.
# Submitted via: ExactAudioCopy v0.99pb3
#
DISCID=810ab00a
DTITLE=Laurent Petitgirard - Pop Instrumental de France
DYEAR=1971
DGENRE=Jazz
TTITLE0=Mr. Green Genes
TTITLE1=Albert Ayler in Memoriam
TTITLE2=Clavier Clafoullies
TTITLE3=Oedipe
TTITLE4=Soho
TTITLE5=Dance des Squelettes
TTITLE6=Ceremonie Bleu
TTITLE7=Musique Rose
TTITLE8=Injection
TTITLE9=Ballade pour Cathy
EXTD=YEAR: 1971
EXTT0=
EXTT1=
EXTT2=
EXTT3=
EXTT4=
EXTT5=
EXTT6=
EXTT7=
EXTT8=
EXTT9=
PLAYORDER=
